# xmcd
#
# Track frame offsets:
#	150
#	16501
#	32447
#	47255
#	62019
#	74029
#	85229
#	99443
#	112862
#	125989
#	141777
#	154269
#	167849
#	179058
#	192979
#	209847
#	223848
#	237722
#	259923
#	272926
#
# Disc length: 3831
#
# Revision: 1
# Processed by: cddbd v1.5.1PL0 Copyright (c) Steve Scherf et al.
# Submitted via: dBpowerAMP V4.0
# Normalized: r0:TDELIM( - )
#
DISCID=340ef514
DTITLE=On the Rocks - Loungin' Instrumentals
DYEAR=1900
DGENRE=
TTITLE0=Woody Herman - light my fire
TTITLE1=Cal Tjader - I say a little prayer
TTITLE2=Gabor Szabo - the look of love
TTITLE3=Stan Getz - I've got you under my skin
TTITLE4=Gary McFarland - God only knows
TTITLE5=Chuck Rainey - Eloise (first love)
TTITLE6=Quincy Jones - walk on the wild side
TTITLE7=Stan Getz - cuddles
TTITLE8=Jimmy Smith - catnip
TTITLE9=Milt Jackson - softly as in a morning sunrise
TTITLE10=Arthur Lyman - yellow bird
TTITLE11=Milt Jackson - autumn breeze
TTITLE12=Duke Ellington - caravan
TTITLE13=Dexter Gordon - lullaby in rhythm
TTITLE14=The Dave Brubeck Trio - body and soul
TTITLE15=Dexter Gordon - ghost of a chance
TTITLE16=Stan Getz - wrap your troubles in dreams
TTITLE17=Arthur Lyman - taboo
TTITLE18=Quincy Jones - back in the chicken shack
TTITLE19=Thelonious Monk - round midnight
EXTD=
EXTT0=
EXTT1=
EXTT2=
EXTT3=
EXTT4=
EXTT5=
EXTT6=
EXTT7=
EXTT8=
EXTT9=
EXTT10=
EXTT11=
EXTT12=
EXTT13=
EXTT14=
EXTT15=
EXTT16=
EXTT17=
EXTT18=
EXTT19=
PLAYORDER=
